<svg xmlns="http://www.w3.org/2000/svg" width="146" height="67" fill="none" viewBox="0 0 146 67">
  <path fill="#949494" d="M1.817 9.325a35.457 35.457 0 0 1 5.06-.345c2.3 0 4.025.46 5.175 1.38 1.15.905 1.725 2.223 1.725 3.956 0 1.917-.56 3.366-1.679 4.347-1.104.981-2.745 1.472-4.922 1.472-.89 0-1.618-.03-2.185-.092V26H1.817V9.325Zm3.174 8.234a12.11 12.11 0 0 0 1.886.138c1.242 0 2.185-.268 2.829-.805.66-.552.989-1.334.989-2.346 0-2.04-1.273-3.059-3.818-3.059-.69 0-1.319.046-1.886.138v5.934Zm10.457 2.99v-2.438h7.43v2.438h-7.43Zm19.1-8.97c-1.732 0-3.112.544-4.14 1.633-1.027 1.073-1.54 2.538-1.54 4.393 0 1.84.529 3.304 1.587 4.393 1.058 1.089 2.422 1.633 4.094 1.633 1.395 0 2.76-.422 4.094-1.265l.966 2.369c-1.549.997-3.335 1.495-5.36 1.495-2.621 0-4.722-.774-6.301-2.323-1.58-1.564-2.37-3.665-2.37-6.302 0-2.653.775-4.753 2.324-6.302C29.45 9.754 31.567 8.98 34.25 8.98c2.024 0 3.81.498 5.359 1.495l-.966 2.369c-1.334-.843-2.699-1.265-4.094-1.265Zm9.03-.253c1.534-1.564 3.573-2.346 6.118-2.346 2.546 0 4.578.782 6.096 2.346 1.533 1.549 2.3 3.642 2.3 6.279s-.767 4.738-2.3 6.302c-1.519 1.549-3.55 2.323-6.096 2.323-2.545 0-4.584-.774-6.117-2.323-1.519-1.564-2.278-3.665-2.278-6.302 0-2.637.76-4.73 2.277-6.279Zm2.392 10.695c.92 1.043 2.163 1.564 3.727 1.564 1.563 0 2.805-.521 3.725-1.564.92-1.058 1.38-2.53 1.38-4.416 0-1.886-.46-3.35-1.38-4.393-.92-1.058-2.161-1.587-3.725-1.587-1.565 0-2.806.529-3.727 1.587-.92 1.043-1.38 2.507-1.38 4.393 0 1.886.46 3.358 1.38 4.416Zm28.126-7.36h-.046l-3.68 7.13h-2.898l-3.68-7.13h-.046V26h-3.059V9.21h3.22l4.991 9.89h.046l4.991-9.89h3.312V26h-3.15V14.661Zm6.783-5.336a35.457 35.457 0 0 1 5.06-.345c2.3 0 4.026.46 5.176 1.38 1.15.905 1.725 2.223 1.725 3.956 0 1.917-.56 3.366-1.68 4.347-1.103.981-2.744 1.472-4.921 1.472-.89 0-1.618-.03-2.186-.092V26H80.88V9.325Zm3.174 8.234a12.11 12.11 0 0 0 1.886.138c1.243 0 2.186-.268 2.83-.805.659-.552.988-1.334.988-2.346 0-2.04-1.272-3.059-3.818-3.059-.69 0-1.318.046-1.885.138v5.934ZM92.555 26l5.819-16.79h3.45L107.666 26h-3.45l-1.196-4.048h-5.911L95.889 26h-3.334Zm5.267-6.509h4.462l-2.208-7.452h-.046l-2.208 7.452Zm21.472-6.946a9.986 9.986 0 0 0-4.485-1.035c-.859 0-1.518.184-1.978.552-.46.368-.69.859-.69 1.472 0 1.089.789 1.855 2.369 2.3 2.146.598 3.657 1.326 4.531 2.185.889.859 1.334 1.97 1.334 3.335 0 1.58-.522 2.79-1.564 3.634-1.043.828-2.553 1.242-4.531 1.242-2.009 0-3.811-.498-5.405-1.495l.805-2.576c1.472.997 3.028 1.495 4.669 1.495.904 0 1.587-.192 2.047-.575.475-.399.713-.958.713-1.679 0-.66-.192-1.18-.575-1.564-.368-.383-1.043-.72-2.024-1.012-1.963-.567-3.389-1.28-4.278-2.139-.874-.859-1.311-1.909-1.311-3.151 0-1.38.506-2.484 1.518-3.312 1.027-.828 2.461-1.242 4.301-1.242 1.901 0 3.641.36 5.221 1.081l-.667 2.484Zm13.544 0a9.986 9.986 0 0 0-4.485-1.035c-.859 0-1.518.184-1.978.552-.46.368-.69.859-.69 1.472 0 1.089.789 1.855 2.369 2.3 2.146.598 3.657 1.326 4.531 2.185.889.859 1.334 1.97 1.334 3.335 0 1.58-.522 2.79-1.564 3.634-1.043.828-2.553 1.242-4.531 1.242-2.009 0-3.811-.498-5.405-1.495l.805-2.576c1.472.997 3.028 1.495 4.669 1.495.904 0 1.587-.192 2.047-.575.475-.399.713-.958.713-1.679 0-.66-.192-1.18-.575-1.564-.368-.383-1.043-.72-2.024-1.012-1.963-.567-3.389-1.28-4.278-2.139-.874-.859-1.311-1.909-1.311-3.151 0-1.38.506-2.484 1.518-3.312 1.027-.828 2.461-1.242 4.301-1.242 1.901 0 3.641.36 5.221 1.081l-.667 2.484Z"/>
  <path fill="#949494" d="M5.281 9.994a20.885 20.885 0 0 1 4.25-.425c2.184 0 3.85.466 5 1.4 1.167.917 1.75 2.242 1.75 3.975 0 1.75-.591 3.108-1.775 4.075-1.166.95-2.825 1.425-4.975 1.425a29.84 29.84 0 0 1-3.75-.225v7.85h-.5V9.994Zm.5 9.725a29.84 29.84 0 0 0 3.75.225c2.017 0 3.559-.425 4.625-1.275 1.084-.867 1.625-2.108 1.625-3.725 0-1.6-.533-2.809-1.6-3.625-1.05-.834-2.6-1.25-4.65-1.25-1.25 0-2.5.116-3.75.35v9.3Zm12.925 1.35v-.5h6.75v.5h-6.75Zm24.279 5.225.275.4c-1.567 1.083-3.4 1.625-5.5 1.625-2.667 0-4.792-.85-6.375-2.55-1.584-1.7-2.375-3.975-2.375-6.825 0-2.883.783-5.167 2.35-6.85 1.566-1.683 3.7-2.525 6.4-2.525 2.1 0 3.933.541 5.5 1.625l-.275.4c-1.467-1.017-3.209-1.525-5.225-1.525-2.55 0-4.567.8-6.05 2.4-1.467 1.583-2.2 3.742-2.2 6.475 0 2.7.75 4.858 2.25 6.475 1.5 1.6 3.5 2.4 6 2.4 1.983 0 3.725-.508 5.225-1.525Zm17.775-.55c-1.6 1.716-3.709 2.575-6.325 2.575-2.617 0-4.734-.858-6.35-2.575-1.6-1.733-2.4-4-2.4-6.8s.8-5.058 2.4-6.775c1.616-1.734 3.733-2.6 6.35-2.6 2.616 0 4.725.866 6.325 2.6 1.616 1.716 2.425 3.975 2.425 6.775 0 2.8-.809 5.067-2.425 6.8Zm-12.3-.375c1.516 1.633 3.508 2.45 5.975 2.45 2.466 0 4.458-.817 5.975-2.45 1.516-1.634 2.275-3.775 2.275-6.425s-.759-4.792-2.275-6.425c-1.517-1.633-3.509-2.45-5.975-2.45-2.467 0-4.459.816-5.975 2.45-1.517 1.633-2.275 3.775-2.275 6.425s.758 4.791 2.275 6.425Zm34.15 2.7V10.344h-.05l-7.4 11.475h-.6l-7.4-11.475h-.05v17.725h-.5V9.819h.8l7.425 11.5h.05l7.424-11.5h.8v18.25h-.5Zm5.044-18.075a20.885 20.885 0 0 1 4.25-.425c2.184 0 3.85.466 5 1.4 1.167.917 1.75 2.242 1.75 3.975 0 1.75-.591 3.108-1.775 4.075-1.166.95-2.825 1.425-4.975 1.425-1.316 0-2.566-.075-3.75-.225v7.85h-.5V9.994Zm.5 9.725c1.184.15 2.434.225 3.75.225 2.017 0 3.559-.425 4.625-1.275 1.084-.867 1.625-2.108 1.625-3.725 0-1.6-.533-2.809-1.6-3.625-1.05-.834-2.6-1.25-4.65-1.25-1.25 0-2.5.116-3.75.35v9.3Zm18.199-9.475h-.05l-4.225 11.075h8.5l-4.225-11.075Zm4.425 11.575h-8.9l-2.4 6.25h-.525l7-18.25h.75l7 18.25h-.525l-2.4-6.25Zm10.09-11.75c-1.416 0-2.525.308-3.325.925-.783.617-1.175 1.475-1.175 2.575 0 2.05 1.525 3.55 4.575 4.5 1.817.567 3.134 1.283 3.95 2.15.817.866 1.225 1.983 1.225 3.35 0 1.533-.458 2.708-1.375 3.525-.9.816-2.191 1.225-3.875 1.225-2.066 0-3.816-.584-5.25-1.75l.3-.4c1.367 1.1 3.017 1.65 4.95 1.65 1.55 0 2.725-.358 3.525-1.075.817-.733 1.225-1.792 1.225-3.175 0-1.25-.375-2.258-1.125-3.025-.75-.784-1.983-1.442-3.7-1.975-3.283-1.017-4.925-2.683-4.925-5 0-1.217.434-2.184 1.3-2.9.884-.733 2.117-1.1 3.7-1.1 1.817 0 3.484.417 5 1.25l-.25.425c-1.4-.784-2.983-1.175-4.75-1.175Zm13.306 0c-1.417 0-2.525.308-3.325.925-.783.617-1.175 1.475-1.175 2.575 0 2.05 1.525 3.55 4.575 4.5 1.817.567 3.133 1.283 3.95 2.15.817.866 1.225 1.983 1.225 3.35 0 1.533-.458 2.708-1.375 3.525-.9.816-2.192 1.225-3.875 1.225-2.067 0-3.817-.584-5.25-1.75l.3-.4c1.367 1.1 3.017 1.65 4.95 1.65 1.55 0 2.725-.358 3.525-1.075.817-.733 1.225-1.792 1.225-3.175 0-1.25-.375-2.258-1.125-3.025-.75-.784-1.983-1.442-3.7-1.975-3.283-1.017-4.925-2.683-4.925-5 0-1.217.433-2.184 1.3-2.9.883-.733 2.117-1.1 3.7-1.1 1.817 0 3.483.417 5 1.25l-.25.425c-1.4-.784-2.983-1.175-4.75-1.175Z"/>
</svg>
