<svg xmlns="http://www.w3.org/2000/svg" width="142" height="121" fill="none" viewBox="0 0 142 121">
  <rect width="142" height="86" y="10" fill="#1F2C4E" rx="11"/>
  <path fill="#000" d="M61.944 32.064c2.24-2.336 5.264-3.504 9.072-3.504 3.808 0 6.832 1.168 9.072 3.504 2.24 2.336 3.36 5.488 3.36 9.456 0 3.968-1.12 7.12-3.36 9.456-2.24 2.336-5.264 3.504-9.072 3.504-3.808 0-6.832-1.168-9.072-3.504-2.208-2.336-3.312-5.488-3.312-9.456 0-3.968 1.104-7.12 3.312-9.456Zm9.072 17.664c1.952 0 3.472-.688 4.56-2.064 1.088-1.408 1.632-3.456 1.632-6.144s-.544-4.72-1.632-6.096c-1.088-1.408-2.608-2.112-4.56-2.112-1.92 0-3.424.704-4.512 2.112-1.088 1.376-1.632 3.408-1.632 6.096s.544 4.736 1.632 6.144c1.088 1.376 2.592 2.064 4.512 2.064Z"/>
  <path fill="#3385FA" d="M61.944 32.064c2.24-2.336 5.264-3.504 9.072-3.504 3.808 0 6.832 1.168 9.072 3.504 2.24 2.336 3.36 5.488 3.36 9.456 0 3.968-1.12 7.12-3.36 9.456-2.24 2.336-5.264 3.504-9.072 3.504-3.808 0-6.832-1.168-9.072-3.504-2.208-2.336-3.312-5.488-3.312-9.456 0-3.968 1.104-7.12 3.312-9.456Zm9.072 17.664c1.952 0 3.472-.688 4.56-2.064 1.088-1.408 1.632-3.456 1.632-6.144s-.544-4.72-1.632-6.096c-1.088-1.408-2.608-2.112-4.56-2.112-1.92 0-3.424.704-4.512 2.112-1.088 1.376-1.632 3.408-1.632 6.096s.544 4.736 1.632 6.144c1.088 1.376 2.592 2.064 4.512 2.064ZM56.512 63.976h7.044v1.26h-7.044v-1.26Zm-1.02 7.344h10.044v1.296H55.492V71.32Zm7.224-7.344H64.3v1.32c0 1.56 0 3.072-.396 5.352l-1.596-.132c.408-2.136.408-3.72.408-5.22v-1.32Zm11.507-1.02h1.596v5.988h-1.596v-5.988Zm-6.06 6.528h7.812v1.176h-7.812v-1.176Zm3.912 1.5c2.028 0 3.18.528 3.18 1.548s-1.152 1.548-3.18 1.548c-2.028 0-3.168-.528-3.168-1.548s1.14-1.548 3.168-1.548Zm0 1.092c-1.14 0-1.632.132-1.632.456 0 .336.492.468 1.632.468s1.632-.132 1.632-.468c0-.324-.492-.456-1.632-.456Zm-.804-3.408h1.596v1.656h-1.596v-1.656Zm-4.332-1.44h.9c2.1 0 3.372-.036 4.848-.288l.132 1.212c-1.512.252-2.844.288-4.98.288h-.9v-1.212Zm-.012-3.816h5.016v3.048h-3.42v1.344H66.94v-2.46h3.432v-.732h-3.444v-1.2Zm5.556 1.452h2.076v1.26h-2.076v-1.26Zm12.18-1.92h1.607v11.148h-1.608V62.944Zm1.247 4.116h1.968v1.308H85.91V67.06Zm-7.92 3.036h.936c1.872 0 3.348-.06 4.98-.348l.156 1.32c-1.68.3-3.204.348-5.136.348h-.936v-1.32Zm0-6.12h5.184v1.284h-3.6v5.472H77.99v-6.756Z"/>
</svg>
