<svg xmlns="http://www.w3.org/2000/svg" width="142" height="121" fill="none" viewBox="0 0 142 121">
  <rect width="142" height="86" y="10" fill="#3C201F" rx="11"/>
  <path fill="#F14251" d="M70.968 44.832h-.096L65.88 54h-6.768l8.016-12.72-7.776-12.24h6.96l4.752 8.736h.096l4.752-8.736h6.816l-7.776 12.24L82.968 54H75.96l-4.992-9.168ZM57.456 63.724c1.692 0 2.916 1.536 2.916 3.96 0 2.448-1.224 3.984-2.916 3.984s-2.916-1.536-2.916-3.984c0-2.424 1.224-3.96 2.916-3.96Zm0 1.452c-.828 0-1.38.876-1.38 2.508 0 1.656.552 2.544 1.38 2.544.828 0 1.392-.888 1.392-2.544 0-1.632-.564-2.508-1.392-2.508Zm4.128-2.22h1.608v11.112h-1.608V62.956Zm1.248 4.188H64.8v1.32h-1.968v-1.32Zm10.38-4.188h1.595v11.112h-1.596V62.956Zm-7.105 1.056h1.584v6.9h-1.584v-6.9Zm0 5.964h.984c1.62 0 3.42-.12 5.256-.48l.18 1.32c-1.908.396-3.744.516-5.436.516h-.984v-1.356Zm17.555-7.032h1.608v11.148h-1.608V62.944Zm1.248 4.116h1.968v1.308H84.91V67.06Zm-7.92 3.036h.936c1.872 0 3.348-.06 4.98-.348l.156 1.32c-1.68.3-3.204.348-5.136.348h-.936v-1.32Zm0-6.12h5.184v1.284h-3.6v5.472H76.99v-6.756Z"/>
</svg>
