<svg width="115" height="134" viewBox="0 0 115 134" fill="none" xmlns="http://www.w3.org/2000/svg">
<rect width="115" height="103" rx="16" fill="#F8F8F8"/>
<rect width="115" height="103" rx="16" fill="#F8F8F8"/>
<path d="M55.855 75.119H57.597V87.157H55.855V75.119ZM52.306 76.367H54.022C54.022 80.046 52.774 83.062 48.497 85.129L47.6 83.751C51.058 82.087 52.306 79.903 52.306 76.679V76.367ZM48.237 76.367H53.125V77.732H48.237V76.367ZM59.988 83.036H61.002C63.03 83.036 64.577 83.01 66.371 82.724L66.527 84.102C64.707 84.388 63.069 84.44 61.002 84.44H59.988V83.036ZM59.988 76.12H65.643V77.524H61.73V83.491H59.988V76.12ZM61.314 79.461H65.474V80.813H61.314V79.461ZM67.216 75.119H68.958V87.157H67.216V75.119ZM68.568 79.682H70.7V81.112H68.568V79.682Z" fill="#45484C"/>
<path d="M25 16H91V62H25V16Z" fill="#666666"/>
<path d="M58.5 52.25C66.0939 52.25 72.25 46.0939 72.25 38.5C72.25 30.9061 66.0939 24.75 58.5 24.75C50.9061 24.75 44.75 30.9061 44.75 38.5C44.75 46.0939 50.9061 52.25 58.5 52.25Z" stroke="white" stroke-width="2" stroke-linecap="round" stroke-linejoin="round"/>
<path d="M64.33 32.67L61.415 41.415L52.67 44.33L55.585 35.585L64.33 32.67Z" stroke="white" stroke-width="2" stroke-linecap="round" stroke-linejoin="round"/>
</svg>
